<svg width="44" height="50" viewBox="0 0 44 50" fill="none" xmlns="http://www.w3.org/2000/svg">
<path d="M43.0822 5.39495C43.0822 2.47239 40.7224 0.072976 37.8069 0.00879229V0H5.35451C2.40205 0 0 2.40117 0 5.35451V50L16.7054 38.8637L33.4107 50V21.9807H43.0822V5.39495ZM31.6522 46.7152L16.7054 36.75L1.75846 46.7152V5.35451C1.75846 3.37184 3.37184 1.75846 5.35451 1.75846H33.5039C32.6396 2.60428 32.025 3.70331 31.7762 4.93335L31.7753 4.93599C31.7358 5.13118 31.705 5.32989 31.6848 5.53123C31.6637 5.73609 31.6522 5.94447 31.6522 6.1546V21.9807V46.7152ZM41.3238 20.2223H33.4107V6.1546C33.4107 5.85567 33.4415 5.56464 33.4986 5.28241C33.8389 3.62067 35.1322 2.29391 36.7764 1.89298C36.808 1.88507 36.8362 1.871 36.8678 1.86484C37.0815 1.81737 37.3057 1.80066 37.5299 1.78659C37.6029 1.7822 37.6723 1.76549 37.7462 1.76461C39.7209 1.79714 41.3238 3.41844 41.3238 5.39495V20.2223Z" fill="#110601"/>
</svg>
