<svg width="45" height="58" viewBox="0 0 45 58" fill="none" xmlns="http://www.w3.org/2000/svg">
<path d="M28.7974 19.9297H4.95916C4.70437 19.9297 4.49841 20.1371 4.49841 20.3937C4.49841 20.6503 4.70437 20.8577 4.95916 20.8577H28.7974C29.0522 20.8577 29.2582 20.6503 29.2582 20.3937C29.2582 20.1371 29.0522 19.9297 28.7974 19.9297Z" fill="#110601"/>
<path d="M28.7974 24.459H4.95916C4.70437 24.459 4.49841 24.6664 4.49841 24.923C4.49841 25.1796 4.70437 25.387 4.95916 25.387H28.7974C29.0522 25.387 29.2582 25.1796 29.2582 24.923C29.2582 24.6664 29.0522 24.459 28.7974 24.459Z" fill="#110601"/>
<path d="M28.7974 28.9893H4.95916C4.70437 28.9893 4.49841 29.1967 4.49841 29.4533C4.49841 29.7098 4.70437 29.9173 4.95916 29.9173H28.7974C29.0522 29.9173 29.2582 29.7098 29.2582 29.4533C29.2582 29.1967 29.0522 28.9893 28.7974 28.9893Z" fill="#110601"/>
<path d="M28.7974 33.5186H4.95916C4.70437 33.5186 4.49841 33.726 4.49841 33.9826C4.49841 34.2392 4.70437 34.4466 4.95916 34.4466H28.7974C29.0522 34.4466 29.2582 34.2392 29.2582 33.9826C29.2582 33.726 29.0522 33.5186 28.7974 33.5186Z" fill="#110601"/>
<path d="M40.0415 38.0479H23.3997C23.1449 38.0479 22.939 38.2553 22.939 38.5119C22.939 38.7684 23.1449 38.9759 23.3997 38.9759H40.0415C40.2963 38.9759 40.5023 38.7684 40.5023 38.5119C40.5023 38.2553 40.2963 38.0479 40.0415 38.0479Z" fill="#110601"/>
<path d="M40.0415 42.5771H23.3997C23.1449 42.5771 22.939 42.7846 22.939 43.0411C22.939 43.2977 23.1449 43.5051 23.3997 43.5051H40.0415C40.2963 43.5051 40.5023 43.2977 40.5023 43.0411C40.5023 42.7846 40.2963 42.5771 40.0415 42.5771Z" fill="#110601"/>
<path d="M40.0415 47.1064H23.3997C23.1449 47.1064 22.939 47.3139 22.939 47.5704C22.939 47.827 23.1449 48.0344 23.3997 48.0344H40.0415C40.2963 48.0344 40.5023 47.827 40.5023 47.5704C40.5023 47.3139 40.2963 47.1064 40.0415 47.1064Z" fill="#110601"/>
<path d="M40.0415 51.6367H23.3997C23.1449 51.6367 22.939 51.8441 22.939 52.1007C22.939 52.3573 23.1449 52.5647 23.3997 52.5647H40.0415C40.2963 52.5647 40.5023 52.3573 40.5023 52.1007C40.5023 51.8441 40.2963 51.6367 40.0415 51.6367Z" fill="#110601"/>
<path d="M40.0415 19.9297H32.845C32.5902 19.9297 32.3843 20.1371 32.3843 20.3937C32.3843 20.6503 32.5902 20.8577 32.845 20.8577H40.0415C40.2963 20.8577 40.5022 20.6503 40.5022 20.3937C40.5022 20.1371 40.2963 19.9297 40.0415 19.9297Z" fill="#110601"/>
<path d="M40.0415 24.459H32.845C32.5902 24.459 32.3843 24.6664 32.3843 24.923C32.3843 25.1796 32.5902 25.387 32.845 25.387H40.0415C40.2963 25.387 40.5022 25.1796 40.5022 24.923C40.5022 24.6664 40.2963 24.459 40.0415 24.459Z" fill="#110601"/>
<path d="M40.0415 28.9893H32.845C32.5902 28.9893 32.3843 29.1967 32.3843 29.4533C32.3843 29.7099 32.5902 29.9173 32.845 29.9173H40.0415C40.2963 29.9173 40.5022 29.7099 40.5022 29.4533C40.5022 29.1967 40.2963 28.9893 40.0415 28.9893Z" fill="#110601"/>
<path d="M40.0415 33.5186H32.845C32.5902 33.5186 32.3843 33.726 32.3843 33.9826C32.3843 34.2391 32.5902 34.4466 32.845 34.4466H40.0415C40.2963 34.4466 40.5022 34.2391 40.5022 33.9826C40.5022 33.726 40.2963 33.5186 40.0415 33.5186Z" fill="#110601"/>
<path d="M43.6399 0H1.36059C0.610492 0 0 0.614336 0 1.36973V56.6303C0 57.3857 0.610492 58 1.36059 58H43.6399C44.39 58 45 57.3857 45 56.6303V1.36973C45 0.614336 44.39 0 43.6399 0ZM44.0785 56.6303C44.0785 56.8739 43.8818 57.072 43.6399 57.072H1.36059C1.1187 57.072 0.921498 56.8739 0.921498 56.6303V1.36973C0.921498 1.12613 1.1187 0.928 1.36059 0.928H43.6399C43.8818 0.928 44.0785 1.12613 44.0785 1.36973V56.6303Z" fill="#110601"/>
<path d="M40.042 5.43555H4.95916C4.70437 5.43555 4.49841 5.64295 4.49841 5.89955V15.8644C4.49841 16.121 4.70437 16.3284 4.95916 16.3284H40.0415C40.2963 16.3284 40.5023 16.121 40.5027 15.8644V5.89955C40.5027 5.64295 40.2968 5.43555 40.042 5.43555ZM39.5812 15.4004H5.41991V6.36355H39.5812V15.4004Z" fill="#110601"/>
<path d="M18.4527 38.0479H4.95916C4.70437 38.0479 4.49841 38.2553 4.49841 38.5119V52.1006C4.49841 52.3572 4.70437 52.5646 4.95916 52.5646H18.4527C18.7075 52.5646 18.9134 52.3572 18.9134 52.1006V38.5119C18.9134 38.2553 18.7075 38.0479 18.4527 38.0479ZM17.9919 51.6366H5.41991V38.9759H17.9919V51.6366Z" fill="#110601"/>
</svg>
