<svg width="29" height="30" viewBox="0 0 29 30" fill="none" xmlns="http://www.w3.org/2000/svg">
<path d="M4.83331 12.5293H11.1166C11.3839 12.5293 11.6 12.2852 11.6 11.9845C11.6 11.6838 11.3839 11.4398 11.1166 11.4398H4.83331C4.56603 11.4398 4.34998 11.6838 4.34998 11.9845C4.34998 12.2852 4.56603 12.5293 4.83331 12.5293Z" fill="#110601"/>
<path d="M17.4 14.7083H4.83331C4.56603 14.7083 4.34998 14.9524 4.34998 15.2531C4.34998 15.5538 4.56603 15.7978 4.83331 15.7978H17.4C17.6673 15.7978 17.8833 15.5538 17.8833 15.2531C17.8833 14.9524 17.6673 14.7083 17.4 14.7083Z" fill="#110601"/>
<path d="M17.4 17.9768H4.83331C4.56603 17.9768 4.34998 18.2209 4.34998 18.5216C4.34998 18.8223 4.56603 19.0663 4.83331 19.0663H17.4C17.6673 19.0663 17.8833 18.8223 17.8833 18.5216C17.8833 18.2209 17.6673 17.9768 17.4 17.9768Z" fill="#110601"/>
<path d="M26.1348 0.0381327L9.63283 0C8.05233 0 6.76667 1.44904 6.76667 3.23038V6.02168L2.86617 6.03094C1.28567 6.03094 0 7.47998 0 9.26132V20.7779C0 22.5592 1.28567 24.0077 2.86617 24.0077H5.8V29.4552C5.8 29.6802 5.92277 29.8823 6.10933 29.9635C6.16588 29.988 6.22485 30 6.28333 30C6.41673 30 6.54772 29.9374 6.641 29.8219L11.3313 24.0066L19.3672 23.9696C20.9477 23.9696 22.2333 22.5206 22.2333 20.7398V20.6782L24.7757 23.8301C24.8689 23.9456 24.9999 24.0083 25.1333 24.0083C25.1918 24.0083 25.2508 23.9963 25.3073 23.9718C25.4939 23.8906 25.6167 23.6885 25.6167 23.4635V18.016H26.1338C27.7143 18.016 29 16.567 29 14.7862V3.26851C29 1.48772 27.7148 0.0386774 26.1348 0.0381327ZM21.2667 20.7392C21.2667 21.9197 20.4146 22.8796 19.3652 22.8796L11.1147 22.9177C10.9794 22.9182 10.8499 22.9831 10.759 23.0958L6.76667 28.046V23.4624C6.76667 23.1617 6.55062 22.9177 6.28333 22.9177H2.86617C1.81878 22.9177 0.966667 21.9573 0.966667 20.7774V9.26077C0.966667 8.0803 1.81878 7.1199 2.86713 7.1199L7.25 7.10955C7.25048 7.10955 7.25048 7.10955 7.25097 7.10955L19.3672 7.08122C20.4145 7.08122 21.2667 8.04162 21.2667 9.22209V19.2679V20.7392ZM28.0333 14.7851C28.0333 15.9656 27.1812 16.9254 26.1338 16.9254H25.1333C24.866 16.9254 24.65 17.1695 24.65 17.4702V22.0537L22.2333 19.0576V9.22264C22.2333 7.4413 20.9477 5.99226 19.3662 5.99226L7.73333 6.01896V3.22983C7.73333 2.04935 8.58545 1.08896 9.63187 1.08896L26.1333 1.12709C26.1338 1.12709 26.1338 1.12709 26.1343 1.12709C27.1817 1.12709 28.0338 2.08749 28.0338 3.26796V14.7851H28.0333Z" fill="#110601"/>
</svg>
