<svg width="18" height="30" viewBox="0 0 18 30" fill="none" xmlns="http://www.w3.org/2000/svg">
<path d="M14.9026 0H2.48379C1.11455 0 0 1.12118 0 2.5V29.3748C0 29.6129 0.134648 29.8302 0.346835 29.9358C0.561526 30.0408 0.812543 30.0157 0.999291 29.8704L8.69318 23.9134L16.3871 29.8704C16.4974 29.9558 16.6309 29.9998 16.7655 29.9998C16.8588 29.9998 16.9522 29.9784 17.0395 29.9357C17.2518 29.8301 17.3864 29.6128 17.3864 29.3748V2.5C17.3864 1.12118 16.2719 0 14.9026 0ZM16.1445 28.1053L9.07157 22.6293C8.95997 22.5432 8.82661 22.4999 8.69318 22.4999C8.55976 22.4999 8.42639 22.5433 8.31479 22.6293L1.24187 28.1053V2.5C1.24187 1.81094 1.79856 1.25003 2.48373 1.25003H14.9026C15.5878 1.25003 16.1444 1.81094 16.1444 2.5V28.1053H16.1445Z" fill="#110601"/>
</svg>
