<svg width="49" height="70" viewBox="0 0 49 70" fill="none" xmlns="http://www.w3.org/2000/svg">
<path d="M36.1382 33.6666L37.5427 33.3845C37.0831 34.205 37.1086 35.3332 37.1597 36.0512C37.1852 36.205 37.1852 36.3589 37.2107 36.4871L23.855 39.8204L23.9827 36.1794L26.8428 35.5896L27.2769 35.6922L28.8602 35.1794L36.1382 33.6666Z" fill="#FFFDFD"/>
<path d="M38.5382 27.1283C38.8191 27.4103 38.9723 28.0001 38.9468 28.795C38.9468 31.0257 37.9508 31.1026 37.8997 31.1026C37.8742 31.1026 37.8487 31.1026 37.8231 31.1026L36.8272 31.3847L27.2253 34.1026L27.0977 30.436L30.2387 29.4103L37.8487 26.9232C37.8487 26.9232 38.2573 26.8462 38.5382 27.1283Z" fill="#FFFDFD"/>
<path d="M41.6794 7.17949C50.2343 15.7436 51.2813 31.8718 43.9522 41.6667L24.4165 70L4.8553 41.641C-2.44824 31.8718 -1.37569 15.7436 7.15362 7.17949C11.7502 2.53846 17.9046 0 24.4165 0C30.9284 0 37.0573 2.53846 41.6794 7.17949ZM43.135 41.2564C50.2087 31.7692 49.2128 16.2821 41.0155 8.05128C36.5976 3.64103 30.7497 1.20513 24.5442 1.20513C18.3388 1.20513 12.4908 3.64103 8.09848 8.05128C-0.0988444 16.2821 -1.12032 31.7692 5.92785 41.2051L24.5442 68.2051L43.135 41.2564Z" fill="#DFDFDF"/>
<path d="M41.0158 8.05148C49.2131 16.2822 50.209 31.7694 43.1353 41.2566L24.5445 68.2053L5.92816 41.2053C-1.12001 31.7694 -0.0985315 16.2822 8.09879 8.05148C12.4911 3.64122 18.3391 1.20532 24.5445 1.20532C30.75 1.20532 36.5979 3.64122 41.0158 8.05148ZM40.6072 26.0002C40.6583 25.9746 41.7564 25.6925 38.6919 24.8207C38.5642 23.8976 38.5642 22.3079 39.407 21.7694C39.4325 21.7694 39.4325 21.7438 39.458 21.7438C40.1475 21.513 40.6327 21.2053 40.2497 20.7694L29.9328 17.6412L13.2317 19.9746C13.2317 19.9746 11.3164 20.2566 11.4952 23.231C11.5973 24.8464 12.0825 25.6412 12.5422 26.0515L11.1632 26.4617C10.7802 26.8976 11.2654 27.2053 11.9549 27.4361C11.9804 27.4361 11.9804 27.4617 12.0059 27.4617C12.8486 28.0002 12.8486 29.5899 12.721 30.513C9.65654 31.3848 10.7546 31.6669 10.7546 31.6669L11.4186 31.8207C10.9334 32.2566 10.4737 33.0771 10.5503 34.6156C10.7291 37.5899 12.2868 37.7951 12.2868 37.7951L23.2166 41.3592L39.7134 37.3592C39.7134 37.3592 40.8115 37.0771 37.7471 36.2053C37.6194 35.2823 37.5938 33.6925 38.4621 33.154C38.4876 33.154 38.4876 33.1284 38.5132 33.1284C39.2027 32.8976 39.6879 32.5899 39.3048 32.154L38.5898 31.9489C39.075 31.6669 39.79 30.8976 39.8922 28.9489C39.9688 27.5899 39.6113 26.7951 39.2027 26.3335L40.6072 26.0002Z" fill="#DFDFDF"/>
<path d="M38.692 24.8206C41.7564 25.6924 40.6583 25.9744 40.6073 26.0001L39.2027 26.3334C39.6113 26.795 39.9688 27.5898 39.8922 28.9488C39.7901 30.8975 39.075 31.6668 38.5898 31.9488L39.3049 32.1539C39.6879 32.5898 39.2027 32.8975 38.5132 33.1283C38.4877 33.1283 38.4877 33.1539 38.4622 33.1539C37.5939 33.6924 37.6194 35.2821 37.7471 36.2052C40.8116 37.077 39.7135 37.3591 39.7135 37.3591L23.2167 41.3591L12.2869 37.795C12.2869 37.795 10.7292 37.5898 10.5504 34.6155C10.4738 33.077 10.9334 32.2565 11.4186 31.8206L10.7547 31.6668C10.7547 31.6668 9.65661 31.3847 12.721 30.5129C12.8487 29.5898 12.8487 28.0001 12.006 27.4616C11.9805 27.4616 11.9805 27.436 11.9549 27.436C11.2654 27.2052 10.7802 26.8975 11.1633 26.4616L12.5423 26.0514C12.0826 25.6411 11.5974 24.8462 11.4953 23.2309C11.3165 20.2565 13.2318 19.9744 13.2318 19.9744L29.9329 17.6411L40.2497 20.7693C40.6328 21.2052 40.1476 21.5129 39.4581 21.7437C39.4326 21.7437 39.4326 21.7693 39.407 21.7693C38.5643 22.3078 38.5643 23.8975 38.692 24.8206ZM38.9474 28.795C38.9729 28.0001 38.8197 27.4103 38.5388 27.1283C38.2579 26.8462 37.8493 26.9232 37.8493 26.9232L30.2393 29.4103L27.0983 30.436L27.226 34.1026L36.8278 31.3847L37.8237 31.1026C37.8493 31.1026 37.8748 31.1026 37.9004 31.1026C37.9514 31.1026 38.9474 31.0257 38.9474 28.795ZM38.4622 22.0257L37.0576 22.3078L27.6856 24.2309L24.9021 24.795L24.8 28.4616L36.6235 25.5129L38.1557 25.1283C38.1302 25.0001 38.1302 24.8462 38.1046 24.6924C38.028 23.9744 38.028 22.8462 38.4622 22.0257ZM37.5428 33.3847L36.1383 33.6668L28.8603 35.1796L27.277 35.6924L26.8429 35.5898L23.9828 36.1796L23.8551 39.8206L37.2109 36.4873C37.1853 36.3591 37.1853 36.2052 37.1598 36.0514C37.1087 35.3334 37.0832 34.2052 37.5428 33.3847ZM26.6386 34.1026L26.5109 30.4616L24.1615 29.9744L23.3699 29.8206L14.3809 27.9744L12.9764 27.6924C13.4361 28.5129 13.4105 29.6411 13.3339 30.3334C13.3084 30.5129 13.3084 30.6668 13.2828 30.7693L14.4831 31.077L26.6386 34.1026ZM24.1871 28.4103L24.3148 24.7437L20.7141 23.5642L13.5127 21.2052C13.5127 21.2052 13.4616 21.2052 13.385 21.2052C13.2318 21.2052 13.0275 21.2565 12.8487 21.436C12.5678 21.7437 12.4146 22.3078 12.4401 23.1026C12.4912 25.3334 13.4871 25.4103 13.5127 25.4103C13.5382 25.4103 13.5637 25.4103 13.5893 25.4103L14.1256 25.5642L24.1871 28.4103ZM23.2677 39.795L23.3444 36.1539L12.5678 32.6155C12.5678 32.6155 12.5167 32.6155 12.4401 32.6155C12.2869 32.6155 12.0826 32.6668 11.9038 32.8462C11.6229 33.1539 11.4697 33.718 11.4953 34.5129C11.5463 36.718 12.5423 36.8206 12.5933 36.8206C12.6189 36.8206 12.6444 36.8206 12.67 36.8206L23.2677 39.795Z" fill="black"/>
<path d="M37.057 22.3074L38.4615 22.0254C38.0274 22.8459 38.0274 23.9741 38.104 24.6921C38.1295 24.8459 38.1295 24.9997 38.1551 25.128L36.6229 25.5126L24.7993 28.4613L24.9015 24.7946L27.685 24.2305L37.057 22.3074Z" fill="#FFFDFD"/>
<path d="M26.5101 30.4616L26.6378 34.1026L14.4823 31.077L13.282 30.7693C13.3076 30.6667 13.3076 30.5129 13.3331 30.3334C13.4097 29.6411 13.4352 28.5129 12.9756 27.6924L14.3801 27.9744L23.3691 29.8206L24.1607 29.9744L26.5101 30.4616Z" fill="#FFFDFD"/>
<path d="M24.3139 24.7435L24.1862 28.4102L14.1247 25.5641L13.5884 25.4102C13.5629 25.4102 13.5374 25.4102 13.5118 25.4102C13.4863 25.4102 12.4904 25.3333 12.4393 23.1025C12.4137 22.3076 12.567 21.7435 12.8479 21.4358C13.0266 21.2564 13.2309 21.2051 13.3841 21.2051C13.4608 21.2051 13.5118 21.2051 13.5118 21.2051L20.7132 23.5641L24.3139 24.7435Z" fill="#FFFDFD"/>
<path d="M23.344 36.1539L23.2674 39.795L12.6696 36.8206C12.6441 36.8206 12.6186 36.8206 12.593 36.8206C12.542 36.8206 11.546 36.718 11.4949 34.5129C11.4694 33.718 11.6226 33.1539 11.9035 32.8463C12.0823 32.6668 12.2866 32.6155 12.4398 32.6155C12.5164 32.6155 12.5675 32.6155 12.5675 32.6155L23.344 36.1539Z" fill="#FFFDFD"/>
</svg>
