<?xml version="1.0" standalone="no"?>
<!DOCTYPE svg PUBLIC "-//W3C//DTD SVG 20010904//EN"
 "http://www.w3.org/TR/2001/REC-SVG-20010904/DTD/svg10.dtd">
<svg version="1.0" xmlns="http://www.w3.org/2000/svg"
 width="700.000000pt" height="700.000000pt" viewBox="0 0 700.000000 700.000000"
 preserveAspectRatio="xMidYMid meet">
<metadata>
Created by potrace 1.11, written by Peter Selinger 2001-2013
</metadata>
<g transform="translate(0.000000,700.000000) scale(0.100000,-0.100000)"
fill="#000000" stroke="none">
<path d="M3527 6232 c-10 -2 -129 -65 -265 -139 -136 -75 -274 -150 -307 -168
-33 -18 -80 -43 -105 -57 -25 -14 -70 -39 -100 -55 -30 -17 -95 -53 -145 -80
-49 -28 -119 -66 -155 -85 -36 -20 -229 -125 -430 -236 -201 -110 -392 -214
-425 -232 -33 -18 -78 -43 -100 -55 -22 -12 -65 -36 -95 -52 -84 -46 -353
-194 -571 -313 -108 -59 -216 -117 -240 -127 -67 -30 -142 -95 -192 -165 -43
-60 -90 -157 -101 -209 -21 -94 -24 -125 -22 -209 6 -174 57 -301 165 -412
l66 -68 -49 -47 c-115 -113 -175 -259 -181 -443 -7 -196 51 -349 180 -475 l51
-50 -40 -35 c-22 -19 -60 -67 -86 -106 -126 -193 -142 -456 -40 -669 47 -99
149 -200 250 -247 64 -30 264 -81 516 -132 36 -8 210 -46 279 -61 39 -9 84
-19 100 -21 17 -3 55 -12 85 -19 30 -8 67 -16 83 -19 15 -4 39 -8 55 -11 15
-3 43 -10 62 -15 29 -8 136 -30 214 -46 10 -2 57 -12 105 -23 80 -19 250 -56
296 -65 11 -3 63 -14 115 -26 52 -12 104 -23 115 -26 38 -7 210 -45 255 -55
25 -6 56 -13 70 -15 14 -3 41 -9 60 -14 30 -8 275 -61 349 -76 12 -3 51 -11
85 -19 33 -8 72 -16 86 -19 25 -4 38 -7 203 -46 140 -33 160 -31 268 30 153
87 391 221 439 248 25 14 385 216 800 450 415 234 775 436 800 450 25 14 131
73 235 132 105 59 213 119 240 135 116 64 181 104 198 123 23 25 28 70 11 103
-37 73 -89 71 -236 -14 -62 -35 -221 -125 -353 -199 -132 -75 -325 -184 -430
-243 -104 -59 -215 -121 -245 -138 -30 -17 -174 -98 -320 -180 -146 -82 -294
-165 -330 -185 -36 -19 -69 -38 -75 -42 -5 -4 -37 -22 -70 -40 -33 -18 -163
-92 -290 -163 -540 -305 -510 -289 -549 -283 -32 5 -233 49 -881 192 -88 20
-169 37 -180 40 -34 7 -295 64 -385 84 -103 23 -377 83 -439 96 -12 3 -51 11
-85 19 -33 8 -72 16 -86 19 -14 2 -74 16 -135 30 -60 14 -121 27 -135 29 -32
6 -572 126 -635 141 -5 1 -37 8 -69 15 -86 19 -139 45 -191 92 -57 52 -78 87
-105 172 -18 55 -21 84 -17 155 6 111 11 133 49 210 67 133 209 212 311 173
13 -5 39 -12 58 -15 33 -5 595 -127 674 -146 47 -11 298 -66 335 -73 14 -3 48
-11 75 -17 28 -6 59 -13 70 -16 30 -6 201 -43 270 -59 33 -7 76 -17 95 -21 19
-4 37 -8 40 -9 3 -1 23 -5 45 -9 22 -5 65 -14 95 -22 30 -7 71 -16 90 -19 19
-3 71 -15 115 -25 63 -15 255 -57 385 -85 8 -2 49 -11 90 -20 41 -9 84 -18 95
-21 45 -9 62 -13 110 -24 28 -6 61 -14 75 -16 14 -3 33 -7 42 -10 10 -3 30 -8
45 -10 16 -3 67 -14 115 -25 48 -10 100 -19 115 -19 16 0 127 57 277 141 138
78 280 157 316 177 36 19 77 43 92 53 14 11 28 19 31 19 3 0 64 34 136 75 72
41 134 75 136 75 3 0 22 11 43 23 20 13 100 59 177 102 77 43 156 87 175 98
19 11 143 81 275 155 132 73 254 142 270 152 17 10 48 28 70 40 487 271 830
470 844 489 23 35 19 93 -10 122 -17 17 -34 23 -68 22 -40 0 -78 -19 -296
-142 -137 -77 -257 -145 -265 -151 -8 -6 -22 -13 -30 -17 -13 -6 -81 -44 -420
-235 -391 -220 -512 -289 -550 -310 -25 -14 -241 -135 -480 -270 -239 -134
-455 -256 -480 -270 -25 -14 -94 -53 -153 -86 l-108 -62 -142 31 c-78 17 -149
32 -157 34 -136 29 -856 188 -885 195 -38 9 -331 73 -385 84 -14 3 -88 19
-165 36 -77 18 -149 34 -160 36 -11 2 -72 15 -135 29 -63 15 -126 29 -140 31
-39 8 -515 112 -610 134 -147 33 -314 70 -338 75 -31 6 -104 48 -146 85 -39
35 -89 126 -105 194 -15 60 -12 184 4 247 37 138 149 256 260 272 25 4 86 -6
175 -27 25 -6 293 -65 320 -70 14 -2 77 -17 140 -31 63 -14 126 -29 140 -31
14 -3 53 -11 86 -19 34 -8 73 -16 85 -19 40 -8 65 -14 284 -62 116 -25 219
-48 230 -50 11 -3 41 -7 66 -11 41 -5 48 -3 77 27 43 42 44 90 3 130 -16 16
-39 31 -52 34 -59 14 -477 105 -499 110 -28 5 -85 18 -210 46 -154 35 -584
129 -619 135 -19 3 -37 8 -41 10 -4 2 -22 7 -41 10 -88 15 -196 47 -233 69
-80 47 -152 142 -172 226 -13 57 -16 192 -4 242 41 174 182 314 287 286 17 -4
94 -21 170 -37 76 -16 341 -72 588 -126 248 -53 500 -107 560 -120 61 -13 250
-53 420 -90 171 -37 373 -80 450 -96 77 -16 158 -33 180 -39 31 -7 449 -98
535 -115 8 -2 26 -6 40 -9 52 -12 87 -18 135 -22 l50 -5 695 391 c382 216 720
406 750 422 155 87 337 189 350 198 8 5 33 19 55 31 21 12 195 109 385 216
334 189 413 233 493 277 75 40 98 67 100 115 2 66 -32 92 -164 120 -57 12
-111 24 -119 26 -162 35 -539 118 -550 120 -27 6 -165 36 -183 40 -75 16 -486
106 -502 110 -11 3 -60 14 -110 25 -49 11 -121 27 -160 35 -38 9 -81 18 -95
21 -14 3 -216 47 -450 99 -234 52 -436 96 -450 99 -14 2 -68 14 -120 26 -116
26 -127 29 -165 35 -16 3 -37 8 -45 10 -29 8 -65 11 -83 7z"/>
<path d="M6584 4530 c-22 -9 -149 -79 -284 -155 -135 -76 -261 -147 -280 -158
-19 -11 -125 -70 -235 -132 -231 -130 -201 -113 -505 -283 -129 -73 -242 -136
-250 -141 -8 -6 -31 -19 -50 -29 -66 -36 -415 -232 -430 -241 -8 -6 -76 -44
-150 -85 -74 -41 -229 -129 -345 -194 l-210 -118 -76 17 c-41 10 -86 20 -100
23 -13 2 -107 23 -209 45 -290 65 -278 63 -317 44 -72 -34 -69 -142 5 -172 28
-11 108 -30 236 -56 15 -3 56 -12 90 -20 33 -8 72 -16 86 -19 14 -2 77 -17
140 -31 174 -41 190 -39 305 32 11 7 56 32 100 56 44 25 96 53 115 64 351 200
645 363 651 363 5 0 9 5 9 10 0 6 5 10 11 10 6 0 41 17 77 39 37 21 88 50 113
64 26 14 118 66 205 115 216 122 1254 706 1330 748 84 47 109 76 108 126 -2
72 -70 110 -140 78z"/>
<path d="M2523 3245 l0 -515 36 22 c20 12 59 36 86 53 28 17 63 39 78 49 l29
18 67 -74 c37 -40 90 -98 117 -130 27 -31 54 -58 60 -61 7 -4 10 155 10 534 0
296 -1 539 -4 539 -3 0 -395 64 -453 74 l-26 5 0 -514z"/>
</g>
</svg>
