<svg width="29" height="30" viewBox="0 0 29 30" fill="none" xmlns="http://www.w3.org/2000/svg">
<path d="M28.7284 29.0411L20.3123 20.2885C22.4589 18.1356 23.7888 15.1677 23.7888 11.8944C23.7888 5.3355 18.4533 0 11.8944 0C5.3355 0 0 5.3355 0 11.8944C0 18.4533 5.3355 23.7888 11.8944 23.7888C14.7734 23.7888 17.4157 22.7597 19.4751 21.052L27.9117 29.8261C28.0227 29.9422 28.1711 30 28.3201 30C28.4617 30 28.6027 29.9473 28.7126 29.842C28.938 29.625 28.9448 29.2665 28.7284 29.0411ZM11.8944 22.656C5.96024 22.656 1.1328 17.8286 1.1328 11.8944C1.1328 5.96024 5.96024 1.1328 11.8944 1.1328C17.8286 1.1328 22.656 5.96024 22.656 11.8944C22.656 17.8286 17.828 22.656 11.8944 22.656Z" fill="#110601"/>
</svg>
